<mxfile host="app.diagrams.net" modified="2023-10-08T06:41:49.597Z" agent="Mozilla/5.0 (Windows NT 10.0; Win64; x64) AppleWebKit/537.36 (KHTML, like Gecko) Chrome/117.0.0.0 Safari/537.36" etag="qe-PXwPJvjNBGib_J3T0" version="22.0.4" type="github">
  <diagram name="DFD" id="KFDiwjgnquG4kZcUtKlA">
    <mxGraphModel dx="420" dy="226" grid="1" gridSize="10" guides="1" tooltips="1" connect="1" arrows="1" fold="1" page="1" pageScale="1" pageWidth="850" pageHeight="1100" math="0" shadow="0">
      <root>
        <mxCell id="0" />
        <mxCell id="1" parent="0" />
        <mxCell id="cpr-SET_LJG-gVqA4TEm-1" value="" style="ellipse;whiteSpace=wrap;html=1;aspect=fixed;" vertex="1" parent="1">
          <mxGeometry x="270" y="111" width="80" height="80" as="geometry" />
        </mxCell>
        <mxCell id="cpr-SET_LJG-gVqA4TEm-2" value="" style="rounded=0;whiteSpace=wrap;html=1;" vertex="1" parent="1">
          <mxGeometry x="380" y="51" width="90" height="40" as="geometry" />
        </mxCell>
        <mxCell id="cpr-SET_LJG-gVqA4TEm-3" value="" style="curved=1;endArrow=classic;html=1;rounded=0;exitX=0.239;exitY=0.06;exitDx=0;exitDy=0;exitPerimeter=0;entryX=0;entryY=0;entryDx=0;entryDy=0;" edge="1" parent="1" source="cpr-SET_LJG-gVqA4TEm-1" target="cpr-SET_LJG-gVqA4TEm-2">
          <mxGeometry width="50" height="50" relative="1" as="geometry">
            <mxPoint x="125" y="150" as="sourcePoint" />
            <mxPoint x="175" y="100" as="targetPoint" />
            <Array as="points">
              <mxPoint x="240" y="40" />
              <mxPoint x="350" y="20" />
            </Array>
          </mxGeometry>
        </mxCell>
        <mxCell id="cpr-SET_LJG-gVqA4TEm-4" value="" style="curved=1;endArrow=classic;html=1;rounded=0;exitX=0.736;exitY=0.934;exitDx=0;exitDy=0;exitPerimeter=0;entryX=1;entryY=1;entryDx=0;entryDy=0;" edge="1" parent="1" source="cpr-SET_LJG-gVqA4TEm-1" target="cpr-SET_LJG-gVqA4TEm-2">
          <mxGeometry width="50" height="50" relative="1" as="geometry">
            <mxPoint x="394" y="216" as="sourcePoint" />
            <mxPoint x="485" y="151" as="targetPoint" />
            <Array as="points">
              <mxPoint x="540" y="231" />
            </Array>
          </mxGeometry>
        </mxCell>
        <mxCell id="cpr-SET_LJG-gVqA4TEm-5" value="" style="curved=1;endArrow=classic;html=1;rounded=0;entryX=0.5;entryY=0;entryDx=0;entryDy=0;exitX=0;exitY=0.25;exitDx=0;exitDy=0;" edge="1" parent="1" target="cpr-SET_LJG-gVqA4TEm-1">
          <mxGeometry width="50" height="50" relative="1" as="geometry">
            <mxPoint x="380" y="71" as="sourcePoint" />
            <mxPoint x="310" y="121" as="targetPoint" />
            <Array as="points">
              <mxPoint x="350" y="31" />
              <mxPoint x="300" y="61" />
            </Array>
          </mxGeometry>
        </mxCell>
        <mxCell id="cpr-SET_LJG-gVqA4TEm-6" value="" style="curved=1;endArrow=classic;html=1;rounded=0;entryX=0.794;entryY=0.128;entryDx=0;entryDy=0;entryPerimeter=0;exitX=0;exitY=0.75;exitDx=0;exitDy=0;" edge="1" parent="1" target="cpr-SET_LJG-gVqA4TEm-1">
          <mxGeometry width="50" height="50" relative="1" as="geometry">
            <mxPoint x="380" y="91" as="sourcePoint" />
            <mxPoint x="326.64" y="125.32" as="targetPoint" />
            <Array as="points">
              <mxPoint x="360" y="51" />
              <mxPoint x="320" y="71" />
            </Array>
          </mxGeometry>
        </mxCell>
        <mxCell id="cpr-SET_LJG-gVqA4TEm-7" value="" style="curved=1;endArrow=classic;html=1;rounded=0;entryX=0.959;entryY=0.277;entryDx=0;entryDy=0;entryPerimeter=0;exitX=0;exitY=1;exitDx=0;exitDy=0;" edge="1" parent="1" source="cpr-SET_LJG-gVqA4TEm-2" target="cpr-SET_LJG-gVqA4TEm-1">
          <mxGeometry width="50" height="50" relative="1" as="geometry">
            <mxPoint x="390" y="111" as="sourcePoint" />
            <mxPoint x="344" y="141" as="targetPoint" />
            <Array as="points">
              <mxPoint x="370" y="81" />
              <mxPoint x="340" y="81" />
            </Array>
          </mxGeometry>
        </mxCell>
        <mxCell id="cpr-SET_LJG-gVqA4TEm-8" value="" style="curved=1;endArrow=classic;html=1;rounded=0;exitX=0;exitY=1;exitDx=0;exitDy=0;entryX=1;entryY=0.5;entryDx=0;entryDy=0;" edge="1" parent="1" source="cpr-SET_LJG-gVqA4TEm-2" target="cpr-SET_LJG-gVqA4TEm-1">
          <mxGeometry width="50" height="50" relative="1" as="geometry">
            <mxPoint x="350" y="141" as="sourcePoint" />
            <mxPoint x="380" y="161" as="targetPoint" />
            <Array as="points">
              <mxPoint x="410" y="111" />
              <mxPoint x="400" y="141" />
              <mxPoint x="360" y="151" />
            </Array>
          </mxGeometry>
        </mxCell>
        <mxCell id="cpr-SET_LJG-gVqA4TEm-9" value="" style="curved=1;endArrow=classic;html=1;rounded=0;entryX=1;entryY=1;entryDx=0;entryDy=0;exitX=0.75;exitY=1;exitDx=0;exitDy=0;" edge="1" parent="1" source="cpr-SET_LJG-gVqA4TEm-2" target="cpr-SET_LJG-gVqA4TEm-1">
          <mxGeometry width="50" height="50" relative="1" as="geometry">
            <mxPoint x="560" y="111" as="sourcePoint" />
            <mxPoint x="610" y="61" as="targetPoint" />
            <Array as="points">
              <mxPoint x="480" y="111" />
              <mxPoint x="420" y="191" />
            </Array>
          </mxGeometry>
        </mxCell>
        <mxCell id="cpr-SET_LJG-gVqA4TEm-10" value="USER" style="text;html=1;strokeColor=none;fillColor=none;align=center;verticalAlign=middle;whiteSpace=wrap;rounded=0;" vertex="1" parent="1">
          <mxGeometry x="395" y="56" width="60" height="30" as="geometry" />
        </mxCell>
        <mxCell id="cpr-SET_LJG-gVqA4TEm-11" value="PROJECT&lt;br&gt;BUDDY&lt;br&gt;SYSTEM&lt;br&gt;0" style="text;html=1;strokeColor=none;fillColor=none;align=center;verticalAlign=middle;whiteSpace=wrap;rounded=0;" vertex="1" parent="1">
          <mxGeometry x="280" y="140" width="60" height="30" as="geometry" />
        </mxCell>
        <mxCell id="cpr-SET_LJG-gVqA4TEm-12" value="&lt;font style=&quot;font-size: 6px;&quot;&gt;registered&lt;/font&gt;" style="text;html=1;strokeColor=none;fillColor=none;align=center;verticalAlign=middle;whiteSpace=wrap;rounded=0;rotation=-15;" vertex="1" parent="1">
          <mxGeometry x="260" y="20" width="50" height="10" as="geometry" />
        </mxCell>
        <mxCell id="cpr-SET_LJG-gVqA4TEm-15" value="&lt;font style=&quot;font-size: 6px;&quot;&gt;user details&lt;/font&gt;" style="text;html=1;strokeColor=none;fillColor=none;align=center;verticalAlign=middle;whiteSpace=wrap;rounded=0;rotation=-60;" vertex="1" parent="1">
          <mxGeometry x="273" y="44" width="60" height="30" as="geometry" />
        </mxCell>
        <mxCell id="cpr-SET_LJG-gVqA4TEm-16" value="&lt;span style=&quot;font-size: 6px;&quot;&gt;Project Details&lt;br&gt;&lt;br&gt;&lt;/span&gt;" style="text;html=1;strokeColor=none;fillColor=none;align=center;verticalAlign=middle;whiteSpace=wrap;rounded=0;rotation=-65;" vertex="1" parent="1">
          <mxGeometry x="310" y="68" width="41" height="4" as="geometry" />
        </mxCell>
        <mxCell id="cpr-SET_LJG-gVqA4TEm-21" value="&lt;font style=&quot;font-size: 5px;&quot;&gt;Collaboration Request&lt;/font&gt;" style="text;html=1;strokeColor=none;fillColor=none;align=center;verticalAlign=middle;whiteSpace=wrap;rounded=0;rotation=-65;" vertex="1" parent="1">
          <mxGeometry x="337.36" y="101.86000000000001" width="42.27" height="1" as="geometry" />
        </mxCell>
        <mxCell id="cpr-SET_LJG-gVqA4TEm-22" value="&lt;font style=&quot;font-size: 6px;&quot;&gt;use discussion forum&lt;/font&gt;" style="text;html=1;strokeColor=none;fillColor=none;align=center;verticalAlign=middle;whiteSpace=wrap;rounded=0;rotation=-30;" vertex="1" parent="1">
          <mxGeometry x="367" y="131" width="60" height="30" as="geometry" />
        </mxCell>
        <mxCell id="cpr-SET_LJG-gVqA4TEm-24" value="&lt;span style=&quot;font-size: 6px;&quot;&gt;login details&lt;/span&gt;" style="text;html=1;strokeColor=none;fillColor=none;align=center;verticalAlign=middle;whiteSpace=wrap;rounded=0;rotation=-45;" vertex="1" parent="1">
          <mxGeometry x="410" y="131" width="60" height="30" as="geometry" />
        </mxCell>
        <mxCell id="cpr-SET_LJG-gVqA4TEm-25" value="&lt;span style=&quot;font-size: 6px;&quot;&gt;discussions&lt;/span&gt;" style="text;html=1;strokeColor=none;fillColor=none;align=center;verticalAlign=middle;whiteSpace=wrap;rounded=0;rotation=-45;" vertex="1" parent="1">
          <mxGeometry x="438" y="157" width="60" height="30" as="geometry" />
        </mxCell>
        <mxCell id="cpr-SET_LJG-gVqA4TEm-29" value="Context Diagram" style="text;html=1;strokeColor=none;fillColor=none;align=center;verticalAlign=middle;whiteSpace=wrap;rounded=0;" vertex="1" parent="1">
          <mxGeometry x="120" y="10" width="60" height="30" as="geometry" />
        </mxCell>
        <mxCell id="cpr-SET_LJG-gVqA4TEm-30" value="LVL 1:" style="text;html=1;strokeColor=none;fillColor=none;align=center;verticalAlign=middle;whiteSpace=wrap;rounded=0;" vertex="1" parent="1">
          <mxGeometry x="48" y="220" width="60" height="30" as="geometry" />
        </mxCell>
        <mxCell id="cpr-SET_LJG-gVqA4TEm-31" value="" style="ellipse;whiteSpace=wrap;html=1;aspect=fixed;" vertex="1" parent="1">
          <mxGeometry x="120" y="270" width="60" height="60" as="geometry" />
        </mxCell>
        <mxCell id="cpr-SET_LJG-gVqA4TEm-32" value="" style="ellipse;whiteSpace=wrap;html=1;aspect=fixed;" vertex="1" parent="1">
          <mxGeometry x="460" y="270" width="60" height="60" as="geometry" />
        </mxCell>
        <mxCell id="cpr-SET_LJG-gVqA4TEm-33" value="" style="ellipse;whiteSpace=wrap;html=1;aspect=fixed;" vertex="1" parent="1">
          <mxGeometry x="291" y="480" width="60" height="60" as="geometry" />
        </mxCell>
        <mxCell id="cpr-SET_LJG-gVqA4TEm-34" value="" style="ellipse;whiteSpace=wrap;html=1;aspect=fixed;" vertex="1" parent="1">
          <mxGeometry x="461" y="510" width="60" height="60" as="geometry" />
        </mxCell>
        <mxCell id="cpr-SET_LJG-gVqA4TEm-35" value="" style="ellipse;whiteSpace=wrap;html=1;aspect=fixed;" vertex="1" parent="1">
          <mxGeometry x="461" y="380" width="60" height="60" as="geometry" />
        </mxCell>
        <mxCell id="cpr-SET_LJG-gVqA4TEm-36" value="" style="ellipse;whiteSpace=wrap;html=1;aspect=fixed;" vertex="1" parent="1">
          <mxGeometry x="257" y="380" width="60" height="60" as="geometry" />
        </mxCell>
        <mxCell id="cpr-SET_LJG-gVqA4TEm-37" value="" style="endArrow=none;html=1;rounded=0;" edge="1" parent="1">
          <mxGeometry width="50" height="50" relative="1" as="geometry">
            <mxPoint x="280" y="299.66" as="sourcePoint" />
            <mxPoint x="360" y="299.66" as="targetPoint" />
          </mxGeometry>
        </mxCell>
        <mxCell id="cpr-SET_LJG-gVqA4TEm-38" value="" style="endArrow=none;html=1;rounded=0;" edge="1" parent="1">
          <mxGeometry width="50" height="50" relative="1" as="geometry">
            <mxPoint x="280" y="320" as="sourcePoint" />
            <mxPoint x="360" y="320" as="targetPoint" />
          </mxGeometry>
        </mxCell>
        <mxCell id="cpr-SET_LJG-gVqA4TEm-39" value="" style="endArrow=none;html=1;rounded=0;" edge="1" parent="1">
          <mxGeometry width="50" height="50" relative="1" as="geometry">
            <mxPoint x="80" y="420" as="sourcePoint" />
            <mxPoint x="160" y="420" as="targetPoint" />
          </mxGeometry>
        </mxCell>
        <mxCell id="cpr-SET_LJG-gVqA4TEm-40" value="" style="endArrow=none;html=1;rounded=0;" edge="1" parent="1">
          <mxGeometry width="50" height="50" relative="1" as="geometry">
            <mxPoint x="80" y="440" as="sourcePoint" />
            <mxPoint x="160" y="440" as="targetPoint" />
          </mxGeometry>
        </mxCell>
        <mxCell id="cpr-SET_LJG-gVqA4TEm-41" value="" style="curved=1;endArrow=classic;html=1;rounded=0;entryX=1;entryY=0;entryDx=0;entryDy=0;" edge="1" parent="1" target="cpr-SET_LJG-gVqA4TEm-32">
          <mxGeometry width="50" height="50" relative="1" as="geometry">
            <mxPoint x="620" y="240" as="sourcePoint" />
            <mxPoint x="650" y="250" as="targetPoint" />
            <Array as="points">
              <mxPoint x="600" y="270" />
              <mxPoint x="560" y="280" />
            </Array>
          </mxGeometry>
        </mxCell>
        <mxCell id="cpr-SET_LJG-gVqA4TEm-42" value="" style="curved=1;endArrow=classic;html=1;rounded=0;" edge="1" parent="1">
          <mxGeometry width="50" height="50" relative="1" as="geometry">
            <mxPoint x="20" y="310" as="sourcePoint" />
            <mxPoint x="130" y="280" as="targetPoint" />
            <Array as="points">
              <mxPoint x="40" y="280" />
              <mxPoint x="80" y="260" />
            </Array>
          </mxGeometry>
        </mxCell>
        <mxCell id="cpr-SET_LJG-gVqA4TEm-43" value="" style="curved=1;endArrow=classic;html=1;rounded=0;" edge="1" parent="1">
          <mxGeometry width="50" height="50" relative="1" as="geometry">
            <mxPoint x="180" y="300" as="sourcePoint" />
            <mxPoint x="300" y="300" as="targetPoint" />
            <Array as="points">
              <mxPoint x="220" y="260" />
              <mxPoint x="280" y="270" />
            </Array>
          </mxGeometry>
        </mxCell>
        <mxCell id="cpr-SET_LJG-gVqA4TEm-44" value="" style="curved=1;endArrow=classic;html=1;rounded=0;entryX=0;entryY=0;entryDx=0;entryDy=0;" edge="1" parent="1" target="cpr-SET_LJG-gVqA4TEm-32">
          <mxGeometry width="50" height="50" relative="1" as="geometry">
            <mxPoint x="338" y="300" as="sourcePoint" />
            <mxPoint x="438" y="300" as="targetPoint" />
            <Array as="points">
              <mxPoint x="378" y="260" />
            </Array>
          </mxGeometry>
        </mxCell>
        <mxCell id="cpr-SET_LJG-gVqA4TEm-45" value="" style="endArrow=classic;html=1;rounded=0;entryX=0.5;entryY=0;entryDx=0;entryDy=0;exitX=0.5;exitY=1;exitDx=0;exitDy=0;" edge="1" parent="1" source="cpr-SET_LJG-gVqA4TEm-32" target="cpr-SET_LJG-gVqA4TEm-35">
          <mxGeometry width="50" height="50" relative="1" as="geometry">
            <mxPoint x="540" y="350" as="sourcePoint" />
            <mxPoint x="590" y="300" as="targetPoint" />
          </mxGeometry>
        </mxCell>
        <mxCell id="cpr-SET_LJG-gVqA4TEm-46" value="" style="endArrow=classic;html=1;rounded=0;entryX=0.5;entryY=0;entryDx=0;entryDy=0;exitX=0.5;exitY=1;exitDx=0;exitDy=0;" edge="1" parent="1" target="cpr-SET_LJG-gVqA4TEm-34">
          <mxGeometry width="50" height="50" relative="1" as="geometry">
            <mxPoint x="490.5" y="440" as="sourcePoint" />
            <mxPoint x="491.5" y="490" as="targetPoint" />
          </mxGeometry>
        </mxCell>
        <mxCell id="cpr-SET_LJG-gVqA4TEm-47" value="" style="curved=1;endArrow=classic;html=1;rounded=0;entryX=1;entryY=0.5;entryDx=0;entryDy=0;" edge="1" parent="1" target="cpr-SET_LJG-gVqA4TEm-35">
          <mxGeometry width="50" height="50" relative="1" as="geometry">
            <mxPoint x="640" y="420" as="sourcePoint" />
            <mxPoint x="540" y="419" as="targetPoint" />
            <Array as="points">
              <mxPoint x="620" y="430" />
              <mxPoint x="590" y="430" />
            </Array>
          </mxGeometry>
        </mxCell>
        <mxCell id="cpr-SET_LJG-gVqA4TEm-48" value="" style="curved=1;endArrow=classic;html=1;rounded=0;entryX=1;entryY=1;entryDx=0;entryDy=0;" edge="1" parent="1" target="cpr-SET_LJG-gVqA4TEm-35">
          <mxGeometry width="50" height="50" relative="1" as="geometry">
            <mxPoint x="630" y="450" as="sourcePoint" />
            <mxPoint x="560" y="459" as="targetPoint" />
            <Array as="points">
              <mxPoint x="600" y="460" />
              <mxPoint x="540" y="450" />
            </Array>
          </mxGeometry>
        </mxCell>
        <mxCell id="cpr-SET_LJG-gVqA4TEm-49" value="" style="curved=1;endArrow=classic;html=1;rounded=0;entryX=1;entryY=0;entryDx=0;entryDy=0;" edge="1" parent="1" target="cpr-SET_LJG-gVqA4TEm-35">
          <mxGeometry width="50" height="50" relative="1" as="geometry">
            <mxPoint x="629" y="350" as="sourcePoint" />
            <mxPoint x="520" y="389" as="targetPoint" />
            <Array as="points">
              <mxPoint x="609" y="380" />
              <mxPoint x="569" y="390" />
            </Array>
          </mxGeometry>
        </mxCell>
        <mxCell id="cpr-SET_LJG-gVqA4TEm-50" value="" style="endArrow=classic;html=1;rounded=0;entryX=0.5;entryY=0;entryDx=0;entryDy=0;exitX=0.5;exitY=1;exitDx=0;exitDy=0;" edge="1" parent="1">
          <mxGeometry width="50" height="50" relative="1" as="geometry">
            <mxPoint x="490.66" y="570" as="sourcePoint" />
            <mxPoint x="491.16" y="640" as="targetPoint" />
          </mxGeometry>
        </mxCell>
        <mxCell id="cpr-SET_LJG-gVqA4TEm-53" value="" style="endArrow=classic;html=1;rounded=0;entryX=1;entryY=0.5;entryDx=0;entryDy=0;exitX=0;exitY=0.5;exitDx=0;exitDy=0;" edge="1" parent="1" source="cpr-SET_LJG-gVqA4TEm-35" target="cpr-SET_LJG-gVqA4TEm-36">
          <mxGeometry width="50" height="50" relative="1" as="geometry">
            <mxPoint x="460" y="400" as="sourcePoint" />
            <mxPoint x="360" y="390" as="targetPoint" />
          </mxGeometry>
        </mxCell>
        <mxCell id="cpr-SET_LJG-gVqA4TEm-55" value="" style="curved=1;endArrow=classic;html=1;rounded=0;exitX=0;exitY=0;exitDx=0;exitDy=0;" edge="1" parent="1" source="cpr-SET_LJG-gVqA4TEm-36">
          <mxGeometry width="50" height="50" relative="1" as="geometry">
            <mxPoint x="190" y="400" as="sourcePoint" />
            <mxPoint x="120" y="420" as="targetPoint" />
            <Array as="points">
              <mxPoint x="190" y="350" />
            </Array>
          </mxGeometry>
        </mxCell>
        <mxCell id="cpr-SET_LJG-gVqA4TEm-57" value="" style="curved=1;endArrow=classic;html=1;rounded=0;exitX=0;exitY=0.5;exitDx=0;exitDy=0;" edge="1" parent="1" source="cpr-SET_LJG-gVqA4TEm-33">
          <mxGeometry width="50" height="50" relative="1" as="geometry">
            <mxPoint x="190" y="490" as="sourcePoint" />
            <mxPoint x="120" y="440" as="targetPoint" />
            <Array as="points">
              <mxPoint x="220" y="520" />
              <mxPoint x="120" y="500" />
            </Array>
          </mxGeometry>
        </mxCell>
        <mxCell id="cpr-SET_LJG-gVqA4TEm-58" value="" style="endArrow=classic;html=1;rounded=0;entryX=1;entryY=0.5;entryDx=0;entryDy=0;exitX=0;exitY=1;exitDx=0;exitDy=0;" edge="1" parent="1" source="cpr-SET_LJG-gVqA4TEm-35" target="cpr-SET_LJG-gVqA4TEm-33">
          <mxGeometry width="50" height="50" relative="1" as="geometry">
            <mxPoint x="400" y="500" as="sourcePoint" />
            <mxPoint x="450" y="450" as="targetPoint" />
          </mxGeometry>
        </mxCell>
        <mxCell id="cpr-SET_LJG-gVqA4TEm-59" value="&lt;font style=&quot;font-size: 8px;&quot;&gt;User details&lt;/font&gt;" style="text;html=1;strokeColor=none;fillColor=none;align=center;verticalAlign=middle;whiteSpace=wrap;rounded=0;rotation=0;" vertex="1" parent="1">
          <mxGeometry y="310" width="60" height="20" as="geometry" />
        </mxCell>
        <mxCell id="cpr-SET_LJG-gVqA4TEm-60" value="&lt;font style=&quot;font-size: 8px;&quot;&gt;Login Details&lt;/font&gt;" style="text;html=1;strokeColor=none;fillColor=none;align=center;verticalAlign=middle;whiteSpace=wrap;rounded=0;rotation=0;" vertex="1" parent="1">
          <mxGeometry x="590" y="220" width="60" height="20" as="geometry" />
        </mxCell>
        <mxCell id="cpr-SET_LJG-gVqA4TEm-62" value="&lt;font style=&quot;font-size: 8px;&quot;&gt;collaboration request&lt;/font&gt;" style="text;html=1;strokeColor=none;fillColor=none;align=center;verticalAlign=middle;whiteSpace=wrap;rounded=0;rotation=0;" vertex="1" parent="1">
          <mxGeometry x="627" y="440" width="83" height="20" as="geometry" />
        </mxCell>
        <mxCell id="cpr-SET_LJG-gVqA4TEm-63" value="&lt;font style=&quot;font-size: 8px;&quot;&gt;view discussion forum&lt;/font&gt;" style="text;html=1;strokeColor=none;fillColor=none;align=center;verticalAlign=middle;whiteSpace=wrap;rounded=0;rotation=0;" vertex="1" parent="1">
          <mxGeometry x="638" y="408" width="92" height="20" as="geometry" />
        </mxCell>
        <mxCell id="cpr-SET_LJG-gVqA4TEm-64" value="&lt;font style=&quot;font-size: 8px;&quot;&gt;project details&lt;/font&gt;" style="text;html=1;strokeColor=none;fillColor=none;align=center;verticalAlign=middle;whiteSpace=wrap;rounded=0;rotation=0;" vertex="1" parent="1">
          <mxGeometry x="630" y="330" width="60" height="20" as="geometry" />
        </mxCell>
        <mxCell id="cpr-SET_LJG-gVqA4TEm-67" value="&lt;span style=&quot;font-size: 8px;&quot;&gt;discussions&lt;/span&gt;" style="text;html=1;strokeColor=none;fillColor=none;align=center;verticalAlign=middle;whiteSpace=wrap;rounded=0;rotation=0;" vertex="1" parent="1">
          <mxGeometry x="480" y="600" width="83" height="20" as="geometry" />
        </mxCell>
        <mxCell id="cpr-SET_LJG-gVqA4TEm-68" value="&lt;font style=&quot;font-size: 8px;&quot;&gt;project details&lt;/font&gt;" style="text;html=1;strokeColor=none;fillColor=none;align=center;verticalAlign=middle;whiteSpace=wrap;rounded=0;rotation=0;" vertex="1" parent="1">
          <mxGeometry x="365" y="388" width="60" height="20" as="geometry" />
        </mxCell>
        <mxCell id="cpr-SET_LJG-gVqA4TEm-69" value="&lt;font style=&quot;font-size: 8px;&quot;&gt;collaborate on&lt;/font&gt;" style="text;html=1;strokeColor=none;fillColor=none;align=center;verticalAlign=middle;whiteSpace=wrap;rounded=0;rotation=-35;" vertex="1" parent="1">
          <mxGeometry x="376" y="452" width="60" height="20" as="geometry" />
        </mxCell>
        <mxCell id="cpr-SET_LJG-gVqA4TEm-70" value="&lt;font style=&quot;font-size: 8px;&quot;&gt;use discussion forum&lt;/font&gt;" style="text;html=1;strokeColor=none;fillColor=none;align=center;verticalAlign=middle;whiteSpace=wrap;rounded=0;rotation=0;" vertex="1" parent="1">
          <mxGeometry x="493" y="470" width="83" height="20" as="geometry" />
        </mxCell>
        <mxCell id="cpr-SET_LJG-gVqA4TEm-71" value="&lt;font style=&quot;font-size: 8px;&quot;&gt;User Details&lt;/font&gt;" style="text;html=1;strokeColor=none;fillColor=none;align=center;verticalAlign=middle;whiteSpace=wrap;rounded=0;rotation=0;" vertex="1" parent="1">
          <mxGeometry x="290" y="300" width="60" height="20" as="geometry" />
        </mxCell>
        <mxCell id="cpr-SET_LJG-gVqA4TEm-73" value="&lt;span style=&quot;font-size: 8px;&quot;&gt;Project Data&lt;/span&gt;" style="text;html=1;strokeColor=none;fillColor=none;align=center;verticalAlign=middle;whiteSpace=wrap;rounded=0;rotation=0;" vertex="1" parent="1">
          <mxGeometry x="90" y="420" width="60" height="20" as="geometry" />
        </mxCell>
        <mxCell id="cpr-SET_LJG-gVqA4TEm-74" value="&lt;span style=&quot;font-size: 8px;&quot;&gt;User Registration&lt;br&gt;0.1&lt;br&gt;&lt;/span&gt;" style="text;html=1;strokeColor=none;fillColor=none;align=center;verticalAlign=middle;whiteSpace=wrap;rounded=0;rotation=0;" vertex="1" parent="1">
          <mxGeometry x="120" y="290" width="60" height="20" as="geometry" />
        </mxCell>
        <mxCell id="cpr-SET_LJG-gVqA4TEm-75" value="&lt;span style=&quot;font-size: 8px;&quot;&gt;Authentication&lt;br&gt;0.2&lt;br&gt;&lt;/span&gt;" style="text;html=1;strokeColor=none;fillColor=none;align=center;verticalAlign=middle;whiteSpace=wrap;rounded=0;rotation=0;" vertex="1" parent="1">
          <mxGeometry x="460" y="290" width="60" height="20" as="geometry" />
        </mxCell>
        <mxCell id="cpr-SET_LJG-gVqA4TEm-76" value="&lt;span style=&quot;font-size: 8px;&quot;&gt;Display Dashboard&lt;br&gt;0.3&lt;br&gt;&lt;/span&gt;" style="text;html=1;strokeColor=none;fillColor=none;align=center;verticalAlign=middle;whiteSpace=wrap;rounded=0;rotation=0;" vertex="1" parent="1">
          <mxGeometry x="460" y="400" width="60" height="20" as="geometry" />
        </mxCell>
        <mxCell id="cpr-SET_LJG-gVqA4TEm-77" value="&lt;span style=&quot;font-size: 8px;&quot;&gt;List Your Project&lt;br&gt;0.4&lt;br&gt;&lt;/span&gt;" style="text;html=1;strokeColor=none;fillColor=none;align=center;verticalAlign=middle;whiteSpace=wrap;rounded=0;rotation=0;" vertex="1" parent="1">
          <mxGeometry x="257" y="400" width="60" height="20" as="geometry" />
        </mxCell>
        <mxCell id="cpr-SET_LJG-gVqA4TEm-78" value="&lt;span style=&quot;font-size: 8px;&quot;&gt;Add Collaborator&lt;br&gt;0.5&lt;br&gt;&lt;/span&gt;" style="text;html=1;strokeColor=none;fillColor=none;align=center;verticalAlign=middle;whiteSpace=wrap;rounded=0;rotation=0;" vertex="1" parent="1">
          <mxGeometry x="291" y="500" width="60" height="20" as="geometry" />
        </mxCell>
        <mxCell id="cpr-SET_LJG-gVqA4TEm-79" value="&lt;span style=&quot;font-size: 8px;&quot;&gt;Discussion forum Manager&lt;br&gt;0.6&lt;br&gt;&lt;/span&gt;" style="text;html=1;strokeColor=none;fillColor=none;align=center;verticalAlign=middle;whiteSpace=wrap;rounded=0;rotation=0;" vertex="1" parent="1">
          <mxGeometry x="461" y="530" width="60" height="20" as="geometry" />
        </mxCell>
      </root>
    </mxGraphModel>
  </diagram>
</mxfile>
